
<svg width="196" height="69" viewBox="0 0 196 69" fill="none" xmlns="http://www.w3.org/2000/svg">
<path d="M64.0191 25.764C62.5752 23.9867 60.6893 22.5714 58.5278 21.643C56.3663 20.7146 53.9956 20.3015 51.6247 20.4403C50.137 20.5263 48.6728 20.8305 47.2847 21.3421C47.1727 21.3768 47.0579 21.4236 46.9473 21.465C45.0123 22.2261 43.2753 23.3732 41.8559 24.8275C41.7142 24.9825 41.561 25.1375 41.4164 25.2991C41.1626 25.5823 40.9244 25.8762 40.6948 26.1822C39.6629 27.5572 38.9114 29.1011 38.4787 30.735C38.4376 30.89 38.4007 31.041 38.3639 31.1959C38.2354 31.7427 38.1463 32.2971 38.0973 32.8552C37.8811 35.141 38.279 37.4413 39.2543 39.5442C39.4513 39.9664 39.6796 40.3805 39.915 40.7826C40.8889 42.42 42.2107 43.8505 43.7979 44.9848C45.3851 46.1191 47.2034 46.9327 49.1394 47.375C51.0753 47.8172 53.0873 47.8784 55.0495 47.5549C57.0117 47.2314 58.882 46.5301 60.5436 45.4948C62.2052 44.4594 63.6223 43.1123 64.7064 41.5376C65.7905 39.963 66.5183 38.1945 66.8444 36.3428C67.1704 34.4911 67.0877 32.596 66.6013 30.7758C66.115 28.9556 65.2355 27.2495 64.0177 25.764H64.0191ZM60.9567 25.1482C61.3261 25.4586 61.6755 25.7896 62.003 26.1394C61.0509 26.7213 60.0404 27.2136 58.9859 27.609C58.1406 25.6943 56.9312 23.9413 55.4173 22.4362C57.474 22.893 59.3777 23.825 60.9567 25.1482ZM53.1474 22.1343C53.2041 22.1423 53.2707 22.1343 53.3161 22.173C55.2675 23.7661 56.803 25.7616 57.8035 28.0044C56.2946 28.4529 54.7285 28.7077 53.1474 28.7619V22.1343ZM51.7296 22.173C51.7749 22.1316 51.8402 22.1423 51.8983 22.1343V28.7619C50.7518 28.7222 49.6122 28.5772 48.4956 28.329C48.0702 28.2355 47.6576 28.1273 47.2436 28.0044C47.555 27.3016 47.9214 26.6215 48.3396 25.9698C49.2474 24.5427 50.3908 23.261 51.7267 22.173H51.7296ZM43.1575 26.0232C44.4361 24.698 46.0148 23.6611 47.7767 22.9893C48.0319 22.8931 48.29 22.8036 48.5494 22.7221C48.9025 22.6099 49.2668 22.5164 49.6284 22.4309C49.0638 22.994 48.5386 23.5911 48.056 24.2183C47.257 25.2704 46.5878 26.4048 46.0612 27.5996C45.2303 27.2908 44.4271 26.9195 43.6594 26.4894C43.4496 26.3772 43.2482 26.261 43.0469 26.1381C43.0753 26.1034 43.1121 26.0619 43.1575 26.0232ZM40.0085 32.1685C40.2946 30.4651 40.972 28.841 41.9935 27.4099C42.0757 27.2937 42.1608 27.1815 42.2473 27.0692C43.3082 27.7199 44.4347 28.2703 45.6103 28.7124C45.4331 29.2081 45.2814 29.7157 45.1538 30.2261C44.8853 31.292 44.7286 32.3802 44.6859 33.4751H39.8653C39.8847 33.0369 39.9311 32.6002 40.0043 32.1672L40.0085 32.1685ZM39.8668 34.66H44.6873C44.7029 35.2091 44.7525 35.7582 44.8291 36.3032C44.9362 37.1161 45.1092 37.92 45.3466 38.7079C45.4161 38.9524 45.4884 39.1915 45.5805 39.432C44.4152 39.8703 43.2995 40.4177 42.2501 41.0659C40.8095 39.1924 39.9794 36.9641 39.8611 34.6534L39.8668 34.66ZM44.14 43.023C44.0663 42.9656 43.9983 42.9041 43.9274 42.8413C43.6197 42.5741 43.3276 42.2882 43.0441 41.9943C43.7799 41.5455 44.5517 41.1511 45.3523 40.8147C45.5692 40.7212 45.7918 40.633 46.013 40.5475C46.7535 42.2573 47.784 43.8423 49.0641 45.2407C49.2059 45.3836 49.3264 45.5306 49.4696 45.6628C47.492 45.1986 45.6621 44.2927 44.1344 43.0217L44.14 43.023ZM51.9011 45.9955C51.7882 46.0005 51.6753 45.986 51.5679 45.9527C49.6595 44.3565 48.1638 42.37 47.1954 40.1454C48.7187 39.6847 50.3023 39.4244 51.9011 39.3719V45.9955ZM51.5594 38.2029H51.5396C49.9149 38.284 48.3083 38.5638 46.7601 39.0352C46.5444 38.4181 46.3715 37.7885 46.2427 37.1502C46.093 36.4146 45.9982 35.67 45.9591 34.9219C45.9307 34.5385 45.9477 33.8531 45.9591 33.4777L45.9704 33.2346V33.2186C45.9716 33.2137 45.9716 33.2087 45.9704 33.2039C46.0144 32.4858 46.112 31.7715 46.2625 31.0664C46.3891 30.4428 46.5591 29.8279 46.7715 29.2254L48.4629 29.538C49.5273 29.7585 50.6097 29.8925 51.6984 29.9388C51.8671 29.9388 52.6908 29.9575 53.2381 29.9455H53.2509C54.953 29.8851 56.6383 29.6055 58.26 29.1146C58.7253 30.4259 59.0065 31.789 59.0965 33.1691V33.1838C59.105 33.2813 59.1093 33.3815 59.1135 33.4777C59.122 33.8224 59.1348 34.3568 59.122 34.6627V34.7081C59.064 36.1801 58.7892 37.6373 58.3054 39.0379C56.9604 38.6284 55.5707 38.3635 54.1625 38.2484C54.1413 38.2484 54.1172 38.2484 54.0916 38.2484C53.784 38.2216 53.4763 38.2056 53.1644 38.1949C53.0042 38.1949 52.8397 38.1949 52.688 38.1949C52.1209 38.1829 51.6643 38.1976 51.5538 38.2016L51.5594 38.2029ZM53.4862 45.9514C53.3782 45.9813 53.2656 45.9944 53.1531 45.9901V39.3705C54.7533 39.4237 56.3381 39.6839 57.863 40.1441C56.8886 42.3691 55.39 44.3563 53.4806 45.9554L53.4862 45.9514ZM56.655 45.3596C56.302 45.4744 55.9461 45.568 55.5832 45.6575C57.0527 44.1643 58.2228 42.4325 59.037 40.5462C60.0732 40.9374 61.067 41.4219 62.0044 41.993C60.5546 43.5294 58.7109 44.6899 56.6494 45.3636L56.655 45.3596ZM64.263 38.581C63.8789 39.4614 63.3849 40.2956 62.7913 41.0659C61.7428 40.4183 60.6274 39.8722 59.4623 39.436C60.0044 37.8908 60.3071 36.28 60.3612 34.6534H65.1818C65.1131 36.0039 64.8005 37.3335 64.2573 38.585L64.263 38.581ZM60.3584 33.4697C60.2944 31.8487 59.9836 30.2448 59.4354 28.7071C60.6115 28.2651 61.7376 27.7133 62.797 27.0599C64.2398 28.9323 65.0706 31.1611 65.1874 33.4724L60.3584 33.4697Z" fill="url(#paint0_linear_551_24377)"/>
<path d="M72.3907 2.90491C73.1747 1.31515 71.2564 -0.568527 69.5366 0.162231C68.2975 0.563012 67.6651 2.11671 68.4024 3.16141C69.2091 4.63896 71.798 4.47597 72.3907 2.90491Z" fill="url(#paint1_linear_551_24377)"/>
<path d="M89.1219 15.1847C86.1034 15.1459 83.6449 17.8151 83.876 20.6046C79.9444 22.0995 76.0781 23.7654 72.0884 25.084L71.9905 25.1147C71.1315 23.4611 70.0388 21.9246 68.7423 20.5471L68.9351 20.332C71.0746 17.9714 72.8696 15.3543 75.0317 13.0151C76.6126 12.8535 78.4033 12.08 78.5876 10.3927C79.0597 8.25517 76.4368 6.35814 74.3583 7.28261C72.8228 7.81699 72.216 9.45618 72.5151 10.8896C70.7117 13.2262 68.7664 15.4599 66.9715 17.7978L66.4667 18.4577C64.4459 16.8535 62.1295 15.6127 59.6329 14.7973L59.6868 14.5047C60.0866 12.5662 60.4155 10.6158 60.8451 8.68668C62.0077 8.30327 63.1817 7.7395 63.8098 6.69079C65.2276 4.62142 64.2238 1.49934 61.744 0.620291C59.0955 -0.598084 55.6021 1.42185 55.5567 4.19125C55.31 5.75029 56.3294 7.10493 57.5147 8.06547C57.3417 9.93578 56.8242 11.762 56.535 13.6203L56.4754 14.0091C55.1775 13.7849 53.8606 13.6722 52.541 13.6724C49.1587 13.6686 45.8228 14.4136 42.8021 15.8473C42.0055 15.6451 41.1866 15.5308 40.362 15.5066C37.4059 15.4292 34.2895 16.3496 32.1798 18.3535C31.0016 19.4717 29.6278 20.6981 29.4293 22.3426C30.4558 23.4688 31.6978 24.3853 32.7994 25.446L32.8774 25.5195C32.6024 26.0766 32.3528 26.6484 32.1345 27.2322C31.478 26.6176 30.8159 26.0031 30.168 25.3792C28.4964 24.1649 26.9978 22.2812 24.6952 22.2919C19.5996 22.1182 14.5862 24.4975 11.5635 28.3397C14.4388 28.874 17.2758 29.6542 19.7598 31.1558C20.5956 31.7256 21.4001 32.3352 22.1701 32.982L26.5001 37.058C26.7922 37.3479 27.0913 37.6311 27.4004 37.901L31.8708 42.0985L33.2503 43.3903C33.3864 43.6424 33.5282 43.89 33.6756 44.1331C35.5671 47.2703 38.3066 49.8795 41.6156 51.6953C44.9245 53.511 48.6849 54.4686 52.5141 54.4706H52.6006C53.7975 54.4639 54.9919 54.3657 56.172 54.1767C56.6356 56.1312 57.0837 58.0923 57.6054 60.0348C56.423 61.0207 55.3057 62.2511 55.2731 63.8262C54.9158 66.7853 58.1258 69.4665 61.2024 68.7932C63.6496 68.4018 65.5338 66.112 65.2332 63.7714C65.1595 61.5123 63.0867 59.7943 60.8281 59.4189C60.2865 57.6555 60.0526 55.8119 59.4486 54.0752C59.4571 53.9082 59.4656 53.5755 59.4727 53.4072C59.5436 53.3765 59.6145 53.3484 59.691 53.3177C61.939 52.573 64.0407 51.4828 65.911 50.0914C66.8595 51.2443 68.0093 52.2289 68.9366 53.3992C69.0075 54.4051 68.7154 55.5073 69.3619 56.405C70.326 58.1498 72.9872 58.7656 74.6787 57.5887C76.502 56.4865 76.8253 53.8293 75.3266 52.3585C74.3625 51.279 72.7859 51.1401 71.3894 51.3031C70.3501 50.2196 69.3491 49.1015 68.2489 48.0715C69.1976 47.1267 70.047 46.0977 70.7854 44.9988C70.9711 44.7557 71.1554 44.5072 71.3398 44.268C75.4216 46.4189 79.7247 48.1863 83.9129 50.1555C84.0929 51.3285 84.3226 52.5976 85.308 53.4286C86.8066 54.9101 89.4764 55.0317 91.131 53.7118C93.2251 52.2422 93.2818 48.9492 91.2458 47.4168C89.6281 46.0048 87.0704 46.2252 85.386 47.4249C81.1326 45.4708 76.8872 43.5146 72.6498 41.5561C72.9996 40.7264 73.2904 39.8758 73.5203 39.0098C73.5203 39.0098 73.5203 38.9978 73.5203 38.9951C73.5289 38.959 73.5374 38.9283 73.5444 38.8936C73.6224 38.5956 73.6862 38.2937 73.7543 37.9918C73.8772 37.4352 73.9783 36.8781 74.0577 36.3205C76.3531 36.4301 78.6528 36.4541 80.9482 36.5383C81.745 37.4548 82.8042 38.3525 84.1624 38.2283C86.2069 38.3218 87.9565 36.2364 87.378 34.3834C87.0703 32.8471 85.3931 31.7249 83.7484 31.9146C82.5986 31.9694 81.7777 32.7923 80.9809 33.4697C78.7124 33.3842 76.4311 33.3361 74.1569 33.292H74.1442C74.0788 31.5139 73.7666 29.7515 73.2155 28.0498L73.4991 27.9482C77.3584 26.5629 81.1113 24.9183 84.9833 23.5931C85.9758 23.9872 86.7726 24.7887 87.8615 25.0172C90.7893 25.8642 94.1311 23.732 94.4756 20.8758C95.0016 17.9541 92.2666 15.0417 89.1219 15.1847ZM30.8854 34.863C30.0347 34.0695 29.1902 33.2679 28.3518 32.4584C27.4571 31.6488 26.6603 30.7016 25.6097 30.067C25.2177 30.2148 24.7933 30.2698 24.3735 30.2272C23.9538 30.1847 23.5514 30.0459 23.2017 29.8231C22.852 29.6002 22.5656 29.3 22.3675 28.9487C22.1694 28.5974 22.0656 28.2058 22.0652 27.808C22.0631 27.7746 22.0631 27.7411 22.0652 27.7078C22.0818 27.3373 22.188 26.9754 22.3755 26.6494C22.563 26.3235 22.827 26.0422 23.1474 25.8269C23.4677 25.6116 23.836 25.4681 24.2241 25.4071C24.6122 25.3462 25.01 25.3696 25.3871 25.4754C25.9133 25.6257 26.3758 25.9287 26.7085 26.3411C27.0484 26.7639 27.2317 27.2802 27.2303 27.8106C27.231 28.1294 27.1639 28.4451 27.0332 28.7391C28.0554 29.733 29.1018 30.7043 30.141 31.6875C30.4033 31.9387 30.667 32.1858 30.9293 32.437C30.884 32.9794 30.8599 33.5244 30.8599 34.0775C30.8655 34.3367 30.8698 34.6039 30.8854 34.863ZM64.5258 45.6841C60.8054 49.1963 55.266 50.8716 50.0641 50.1408C47.5905 49.8175 45.2202 48.9942 43.1157 47.7274C41.0112 46.4606 39.2221 44.7801 37.8709 42.8012C37.2666 41.926 36.7579 40.9955 36.3525 40.0238C35.0756 36.9861 34.7951 33.6573 35.5471 30.4678C35.6981 29.8301 35.8927 29.2022 36.1299 28.5881C36.1299 28.5881 36.1299 28.5761 36.1299 28.5721C36.5612 27.4016 37.1416 26.2846 37.8582 25.2456C38.1709 24.7922 38.5083 24.3543 38.8691 23.9337C39.1526 23.6011 39.4475 23.2765 39.7595 22.9665C40.1501 22.5746 40.5613 22.2014 40.9915 21.8483C42.5066 20.5922 44.238 19.5888 46.1112 18.8812C47.863 18.2161 49.7225 17.8379 51.6095 17.763C56.4045 17.5266 61.3158 19.2726 64.6775 22.5217C67.9058 25.5048 69.8312 29.7531 69.7447 34.0308C69.8539 38.3752 67.8633 42.697 64.5258 45.6881V45.6841ZM74.1782 34.008V34.0588C74.1782 34.0414 74.1782 34.0241 74.1782 34.0067V34.008Z" fill="url(#paint2_linear_551_24377)"/>
<path d="M71.1705 62.802C69.4337 63.3631 68.929 65.6729 70.2787 66.8445C71.6668 68.2459 74.5619 67.3522 74.6484 65.3937C74.9844 63.6343 72.9031 62.1447 71.1705 62.802Z" fill="url(#paint3_linear_551_24377)"/>
<path d="M25.4849 27.172C25.3857 27.0551 25.2602 26.9604 25.1173 26.8948C24.9745 26.8293 24.818 26.7945 24.6592 26.793C24.5003 26.7915 24.3431 26.8234 24.199 26.8863C24.0548 26.9491 23.9273 27.0414 23.8257 27.1565C23.7241 27.2716 23.6509 27.4065 23.6116 27.5515C23.5722 27.6965 23.5675 27.8479 23.598 27.9949C23.6284 28.1418 23.6931 28.2804 23.7875 28.4008C23.8819 28.5212 24.0035 28.6203 24.1436 28.691C24.2994 28.7706 24.474 28.812 24.6512 28.8112C24.935 28.8108 25.207 28.7045 25.4077 28.5154C25.6084 28.3263 25.7213 28.07 25.7216 27.8026C25.722 27.5736 25.6389 27.3515 25.4863 27.1733L25.4849 27.172Z" fill="url(#paint4_linear_551_24377)"/>
<path d="M8.40288 41.4668C8.22742 41.4668 8.05465 41.5074 7.89972 41.585C7.7448 41.6626 7.61246 41.7749 7.51434 41.9119C7.41621 42.049 7.3553 42.2067 7.33694 42.3711C7.31858 42.5355 7.34334 42.7017 7.40904 42.855C7.47474 43.0083 7.57938 43.144 7.71377 43.2503C7.84816 43.3566 8.00819 43.4302 8.17981 43.4646C8.35142 43.499 8.52938 43.4932 8.69806 43.4477C8.86674 43.4022 9.02098 43.3183 9.14723 43.2035C9.2725 43.0906 9.36635 42.9504 9.4205 42.7952C9.47465 42.64 9.48744 42.4747 9.45773 42.3138C9.41651 42.0779 9.28795 41.8634 9.09484 41.7084C8.90174 41.5533 8.65659 41.4677 8.40288 41.4668Z" fill="url(#paint5_linear_551_24377)"/>
<path d="M34.2852 46.8807L34.2767 46.8726C33.1028 45.7505 31.9487 44.6016 30.7464 43.5328L28.9429 41.8455C28.8178 41.7151 28.6852 41.5911 28.5459 41.4741L28.0327 40.9905C27.769 40.7233 27.5067 40.4642 27.2401 40.205C26.0407 39.0173 24.7802 37.8417 23.5156 36.7195C22.5231 35.8418 21.6185 34.8933 20.609 34.0343C20.3708 33.8339 20.1284 33.6402 19.8775 33.4505C18.6213 32.506 17.2375 31.814 15.7559 31.2382C15.4638 31.1219 15.1689 31.0204 14.8683 30.9242C12.6807 30.2282 9.99532 29.7593 7.71265 30.3284C5.61854 30.8548 3.87747 32.1987 2.49369 33.7257C2.25124 33.9929 2.01305 34.2667 1.78478 34.5486C1.90522 34.5382 2.02654 34.5409 2.14632 34.5566C2.27818 34.5566 2.40436 34.5647 2.53622 34.5647C4.39639 34.5954 6.26081 34.5219 8.11956 34.5486C9.04822 34.5606 9.97547 34.5954 10.8999 34.6822C11.9916 34.7784 13.0436 34.8906 14.0659 35.2927C14.7026 35.5663 15.3143 35.8889 15.8948 36.2573C16.6268 36.6743 17.3097 37.1634 17.9322 37.7161C19.9554 39.6198 21.956 41.5382 23.9721 43.454C24.2864 43.3303 24.6239 43.2672 24.9646 43.2683C25.5173 43.2691 26.0552 43.4367 26.4994 43.7466C26.9437 44.0565 27.2708 44.4924 27.433 44.9903C27.5089 45.2204 27.5477 45.46 27.5478 45.701C27.5481 46.0665 27.4612 46.4274 27.2933 46.7569C27.1255 47.0865 26.8811 47.3761 26.5782 47.6045C26.2754 47.8329 25.9219 47.9942 25.5439 48.0763C25.1659 48.1584 24.7732 48.1593 24.3948 48.079C24.0163 47.9986 23.662 47.839 23.358 47.612C23.0539 47.385 22.808 47.0964 22.6385 46.7677C22.4689 46.439 22.3801 46.0785 22.3785 45.713C22.3769 45.3475 22.4627 44.9863 22.6294 44.6563C22.3785 44.4359 22.1233 44.2195 21.8652 44.0031C21.4257 43.5542 20.9791 43.1133 20.5353 42.6671C19.9682 42.1528 19.4096 41.6224 18.8439 41.0961C18.532 40.8102 18.2356 40.5082 17.9322 40.2183C17.4842 39.7895 17.0291 39.3674 16.5569 38.9652L16.3343 38.7795C15.0328 37.7188 13.5554 36.8411 11.83 36.5779C9.99532 36.2947 8.13515 36.28 6.27924 36.3107C4.42333 36.3415 2.60428 36.4229 0.76963 36.3495C0.627849 36.3495 0.193999 38.6206 0.152882 38.845C0.0160071 39.6181 -0.0291655 40.4031 0.0181927 41.1856C0.112526 42.792 0.575955 44.36 1.37645 45.7812C1.54129 46.0737 1.72255 46.3578 1.91948 46.6322C3.15712 48.36 4.89175 49.7196 6.92009 50.5518C9.29776 51.5311 11.8824 51.3988 14.4345 51.4335C16.4549 51.4643 18.4795 51.4255 20.4999 51.4416C18.6482 49.6314 16.7058 47.9093 14.8612 46.0911C13.7086 45.0224 12.4028 43.7546 10.6943 43.6504C10.6764 43.6678 10.6575 43.6843 10.6376 43.6998C10.4098 44.068 10.0837 44.3736 9.6917 44.5862C9.29968 44.7988 8.85542 44.9109 8.40312 44.9115C7.96178 44.9105 7.52802 44.8034 7.14293 44.6002C6.75785 44.3971 6.43421 44.1046 6.20268 43.7506C6.11619 43.5729 6.02971 43.3952 5.94038 43.2162C5.86091 42.9785 5.82074 42.7307 5.82129 42.4814V42.4387C5.8327 41.8811 6.04692 41.3442 6.42814 40.9177C6.80936 40.4911 7.33444 40.2009 7.91557 40.0954C8.4967 39.99 9.09864 40.0758 9.6207 40.3384C10.1428 40.601 10.5533 41.0246 10.7836 41.5382C10.8803 41.5885 10.9819 41.6296 11.087 41.6612C11.8383 41.8796 12.5611 42.1767 13.2421 42.5469C13.3399 42.6057 14.6599 43.3631 16.4194 45.0384C16.4194 45.0384 16.4194 45.0464 16.4279 45.0504C18.6695 47.2133 20.9649 49.3254 23.2433 51.4629C23.4319 51.4629 23.6247 51.4629 23.819 51.4549C24.4797 51.4549 25.1361 51.4429 25.794 51.4389C29.1641 51.4242 32.5314 51.4309 35.9015 51.4389L38.8945 51.4589C36.8926 50.2192 35.3812 48.5052 34.2852 46.8807Z" fill="url(#paint6_linear_551_24377)"/>
<path d="M24.9591 46.7124C25.1062 46.71 25.2511 46.679 25.3849 46.6215C25.5187 46.5639 25.6385 46.481 25.7368 46.3779C25.835 46.2748 25.9097 46.1537 25.9561 46.0222C26.0025 45.8907 26.0197 45.7516 26.0065 45.6135C25.9933 45.4755 25.9501 45.3415 25.8795 45.2199C25.8089 45.0983 25.7125 44.9918 25.5963 44.9068C25.48 44.8219 25.3465 44.7605 25.2039 44.7264C25.0614 44.6922 24.9129 44.6862 24.7677 44.7085C24.5213 44.7512 24.2984 44.8739 24.1379 45.0552C23.9773 45.2365 23.8892 45.465 23.8887 45.7011C23.8884 45.9186 23.9635 46.1302 24.1028 46.3036C24.2019 46.4299 24.3309 46.5326 24.4796 46.6036C24.6283 46.6745 24.7925 46.7118 24.9591 46.7124Z" fill="url(#paint7_linear_551_24377)"/>
<path d="M53.4285 33.9315L53.498 33.9609C53.6839 33.7605 53.8572 33.55 54.0169 33.3304C54.0906 33.2182 54.2593 33.0806 54.1275 32.951C53.783 32.4834 53.4101 32.0332 53.0627 31.5683C52.9082 31.3799 52.7877 31.1595 52.5707 31.0205C52.4049 30.9097 52.1808 30.935 51.9908 30.9658C51.9122 31.0024 51.8429 31.0547 51.7879 31.1191C51.7328 31.1835 51.6934 31.2584 51.6722 31.3386C51.651 31.4189 51.6486 31.5025 51.6652 31.5837C51.6818 31.6649 51.717 31.7417 51.7683 31.8087C52.3226 32.5168 52.8614 33.2328 53.4285 33.9315Z" fill="url(#paint8_linear_551_24377)"/>
<path d="M55.8086 35.1074C55.6244 34.8971 55.4576 34.6738 55.3095 34.4395C55.0572 34.7507 54.7991 35.058 54.5723 35.388C54.9636 35.9504 55.4229 36.4741 55.827 37.0245C55.9603 37.1888 56.0737 37.3972 56.2992 37.472C56.4456 37.5221 56.6067 37.5186 56.7505 37.4622C56.8944 37.4058 57.0106 37.3006 57.0761 37.1674C57.1116 37.068 57.1195 36.9617 57.0992 36.8586C57.0788 36.7555 57.0309 36.659 56.9599 36.5783L55.8086 35.1074Z" fill="url(#paint9_linear_551_24377)"/>
<path d="M56.6055 32.334L56.9628 32.8484C56.9479 32.4907 56.9727 32.1325 57.0365 31.7796C57.0634 31.614 57.0974 31.447 57.1357 31.284C57.1981 31.0168 57.2775 30.763 57.3512 30.5332C57.1357 30.6548 56.8919 30.7804 56.6423 30.8966C56.4481 30.9848 56.2482 31.0689 56.0483 31.1451C55.7071 31.278 55.3535 31.3804 54.992 31.451L55.6655 31.6487C54.5425 33.0915 53.4154 34.5317 52.301 35.9785C52.2041 36.1076 52.077 36.2139 51.9295 36.2892C51.782 36.3645 51.618 36.4068 51.4503 36.4127H49.5774C50.2367 35.4842 50.9612 34.5958 51.6275 33.6713C51.8269 33.336 51.906 32.9489 51.853 32.5678C51.8079 32.2488 51.6778 31.9457 51.4747 31.6868C51.2716 31.428 51.0023 31.2218 50.6918 31.0876C50.2247 30.8944 49.7034 30.8503 49.2073 30.962C48.2631 31.2159 47.5442 32.127 47.7172 33.0301C47.7824 33.2291 47.9738 33.4429 48.2234 33.4309C48.3237 33.45 48.4278 33.4426 48.5239 33.4093C48.62 33.3761 48.7045 33.3183 48.7678 33.2425C48.9989 33.0234 48.8104 32.6894 48.9918 32.4489C49.0941 32.2741 49.2584 32.1388 49.456 32.0668C49.6535 31.9947 49.8717 31.9905 50.0722 32.0548C50.5769 32.1884 50.8506 32.8056 50.5259 33.1944C49.6993 34.2631 48.9025 35.3533 48.083 36.426C47.9781 36.5783 47.8122 36.7159 47.8094 36.9056C47.8043 36.9834 47.8163 37.0613 47.8444 37.1346C47.8726 37.2079 47.9164 37.2749 47.9731 37.3316C48.0298 37.3883 48.0983 37.4335 48.1743 37.4643C48.2502 37.4951 48.3321 37.511 48.4148 37.5108C49.2527 37.5175 50.092 37.5108 50.93 37.5108C51.3542 37.5318 51.7795 37.4995 52.1947 37.4146C52.6042 37.279 52.9585 37.0263 53.2084 36.6919C54.3266 35.233 55.4589 33.7804 56.6055 32.334Z" fill="url(#paint10_linear_551_24377)"/>
<path d="M108.057 39.6742C107.302 39.6742 106.622 39.5492 106.017 39.2992C105.417 39.0442 104.92 38.6842 104.525 38.2192C104.135 37.7542 103.88 37.2017 103.76 36.5617L104.885 36.3742C105.065 37.0742 105.445 37.6242 106.025 38.0242C106.605 38.4192 107.297 38.6167 108.102 38.6167C108.632 38.6167 109.107 38.5342 109.527 38.3692C109.947 38.1992 110.277 37.9592 110.517 37.6492C110.757 37.3392 110.877 36.9717 110.877 36.5467C110.877 36.2667 110.827 36.0292 110.727 35.8342C110.627 35.6342 110.495 35.4692 110.33 35.3392C110.165 35.2092 109.985 35.1017 109.79 35.0167C109.595 34.9267 109.405 34.8542 109.22 34.7992L106.482 33.9817C106.152 33.8867 105.847 33.7667 105.567 33.6217C105.287 33.4717 105.042 33.2942 104.832 33.0892C104.627 32.8792 104.467 32.6342 104.352 32.3542C104.237 32.0742 104.18 31.7542 104.18 31.3942C104.18 30.7842 104.34 30.2567 104.66 29.8117C104.98 29.3667 105.417 29.0242 105.972 28.7842C106.527 28.5442 107.16 28.4267 107.87 28.4317C108.59 28.4317 109.232 28.5592 109.797 28.8142C110.367 29.0692 110.837 29.4342 111.207 29.9092C111.577 30.3792 111.822 30.9367 111.942 31.5817L110.787 31.7917C110.712 31.3217 110.54 30.9142 110.27 30.5692C110 30.2242 109.655 29.9592 109.235 29.7742C108.82 29.5842 108.362 29.4867 107.862 29.4817C107.377 29.4817 106.945 29.5642 106.565 29.7292C106.19 29.8892 105.892 30.1092 105.672 30.3892C105.452 30.6692 105.342 30.9892 105.342 31.3492C105.342 31.7142 105.442 32.0067 105.642 32.2267C105.847 32.4467 106.097 32.6192 106.392 32.7442C106.692 32.8692 106.982 32.9717 107.262 33.0517L109.377 33.6742C109.597 33.7342 109.855 33.8217 110.15 33.9367C110.45 34.0467 110.74 34.2067 111.02 34.4167C111.305 34.6217 111.54 34.8917 111.725 35.2267C111.91 35.5617 112.002 35.9867 112.002 36.5017C112.002 37.0017 111.902 37.4492 111.702 37.8442C111.507 38.2392 111.23 38.5717 110.87 38.8417C110.515 39.1117 110.097 39.3167 109.617 39.4567C109.142 39.6017 108.622 39.6742 108.057 39.6742ZM118.423 39.6742C117.348 39.6742 116.44 39.4367 115.7 38.9617C114.96 38.4817 114.4 37.8192 114.02 36.9742C113.64 36.1292 113.45 35.1542 113.45 34.0492C113.45 32.9442 113.64 31.9692 114.02 31.1242C114.4 30.2792 114.96 29.6192 115.7 29.1442C116.44 28.6642 117.348 28.4242 118.423 28.4242C119.503 28.4242 120.41 28.6642 121.145 29.1442C121.885 29.6192 122.445 30.2792 122.825 31.1242C123.21 31.9692 123.403 32.9442 123.403 34.0492C123.403 35.1542 123.21 36.1292 122.825 36.9742C122.445 37.8192 121.885 38.4817 121.145 38.9617C120.41 39.4367 119.503 39.6742 118.423 39.6742ZM118.423 38.6167C119.268 38.6167 119.973 38.4242 120.538 38.0392C121.103 37.6542 121.525 37.1192 121.805 36.4342C122.09 35.7442 122.233 34.9492 122.233 34.0492C122.233 33.1492 122.09 32.3567 121.805 31.6717C121.525 30.9867 121.103 30.4517 120.538 30.0667C119.973 29.6817 119.268 29.4867 118.423 29.4817C117.578 29.4817 116.875 29.6742 116.315 30.0592C115.755 30.4442 115.333 30.9817 115.048 31.6717C114.768 32.3567 114.625 33.1492 114.62 34.0492C114.615 34.9492 114.753 35.7417 115.033 36.4267C115.318 37.1067 115.743 37.6417 116.308 38.0317C116.873 38.4167 117.578 38.6117 118.423 38.6167ZM125.555 39.4492V28.6492H126.657V38.3917H131.787V39.4492H125.555ZM137.781 39.6742C136.956 39.6742 136.226 39.5042 135.591 39.1642C134.961 38.8242 134.466 38.3442 134.106 37.7242C133.746 37.1042 133.566 36.3792 133.566 35.5492V28.6567L134.676 28.6492V35.4067C134.676 35.9667 134.771 36.4517 134.961 36.8617C135.151 37.2667 135.398 37.6017 135.703 37.8667C136.013 38.1267 136.351 38.3192 136.716 38.4442C137.081 38.5692 137.436 38.6317 137.781 38.6317C138.131 38.6317 138.488 38.5692 138.853 38.4442C139.218 38.3192 139.553 38.1267 139.858 37.8667C140.163 37.6017 140.411 37.2667 140.601 36.8617C140.791 36.4517 140.886 35.9667 140.886 35.4067V28.6492H141.996V35.5492C141.996 36.3792 141.816 37.1042 141.456 37.7242C141.096 38.3392 140.598 38.8192 139.963 39.1642C139.333 39.5042 138.606 39.6742 137.781 39.6742ZM147.471 39.4492V29.7067H143.698V28.6492H152.346V29.7067H148.573V39.4492H147.471ZM154.198 39.4492V28.6492H155.301V39.4492H154.198ZM162.422 39.6742C161.347 39.6742 160.439 39.4367 159.699 38.9617C158.959 38.4817 158.399 37.8192 158.019 36.9742C157.639 36.1292 157.449 35.1542 157.449 34.0492C157.449 32.9442 157.639 31.9692 158.019 31.1242C158.399 30.2792 158.959 29.6192 159.699 29.1442C160.439 28.6642 161.347 28.4242 162.422 28.4242C163.502 28.4242 164.409 28.6642 165.144 29.1442C165.884 29.6192 166.444 30.2792 166.824 31.1242C167.209 31.9692 167.402 32.9442 167.402 34.0492C167.402 35.1542 167.209 36.1292 166.824 36.9742C166.444 37.8192 165.884 38.4817 165.144 38.9617C164.409 39.4367 163.502 39.6742 162.422 39.6742ZM162.422 38.6167C163.267 38.6167 163.972 38.4242 164.537 38.0392C165.102 37.6542 165.524 37.1192 165.804 36.4342C166.089 35.7442 166.232 34.9492 166.232 34.0492C166.232 33.1492 166.089 32.3567 165.804 31.6717C165.524 30.9867 165.102 30.4517 164.537 30.0667C163.972 29.6817 163.267 29.4867 162.422 29.4817C161.577 29.4817 160.874 29.6742 160.314 30.0592C159.754 30.4442 159.332 30.9817 159.047 31.6717C158.767 32.3567 158.624 33.1492 158.619 34.0492C158.614 34.9492 158.752 35.7417 159.032 36.4267C159.317 37.1067 159.742 37.6417 160.307 38.0317C160.872 38.4167 161.577 38.6117 162.422 38.6167ZM169.404 39.4492V28.6492H170.514L176.461 37.4992V28.6492H177.571V39.4492H176.461L170.514 30.5917V39.4492H169.404ZM183.922 39.6742C183.167 39.6742 182.487 39.5492 181.882 39.2992C181.282 39.0442 180.785 38.6842 180.39 38.2192C180 37.7542 179.745 37.2017 179.625 36.5617L180.75 36.3742C180.93 37.0742 181.31 37.6242 181.89 38.0242C182.47 38.4192 183.162 38.6167 183.967 38.6167C184.497 38.6167 184.972 38.5342 185.392 38.3692C185.812 38.1992 186.142 37.9592 186.382 37.6492C186.622 37.3392 186.742 36.9717 186.742 36.5467C186.742 36.2667 186.692 36.0292 186.592 35.8342C186.492 35.6342 186.36 35.4692 186.195 35.3392C186.03 35.2092 185.85 35.1017 185.655 35.0167C185.46 34.9267 185.27 34.8542 185.085 34.7992L182.347 33.9817C182.017 33.8867 181.712 33.7667 181.432 33.6217C181.152 33.4717 180.907 33.2942 180.697 33.0892C180.492 32.8792 180.332 32.6342 180.217 32.3542C180.102 32.0742 180.045 31.7542 180.045 31.3942C180.045 30.7842 180.205 30.2567 180.525 29.8117C180.845 29.3667 181.282 29.0242 181.837 28.7842C182.392 28.5442 183.025 28.4267 183.735 28.4317C184.455 28.4317 185.097 28.5592 185.662 28.8142C186.232 29.0692 186.702 29.4342 187.072 29.9092C187.442 30.3792 187.687 30.9367 187.807 31.5817L186.652 31.7917C186.577 31.3217 186.405 30.9142 186.135 30.5692C185.865 30.2242 185.52 29.9592 185.1 29.7742C184.685 29.5842 184.227 29.4867 183.727 29.4817C183.242 29.4817 182.81 29.5642 182.43 29.7292C182.055 29.8892 181.757 30.1092 181.537 30.3892C181.317 30.6692 181.207 30.9892 181.207 31.3492C181.207 31.7142 181.307 32.0067 181.507 32.2267C181.712 32.4467 181.962 32.6192 182.257 32.7442C182.557 32.8692 182.847 32.9717 183.127 33.0517L185.242 33.6742C185.462 33.7342 185.72 33.8217 186.015 33.9367C186.315 34.0467 186.605 34.2067 186.885 34.4167C187.17 34.6217 187.405 34.8917 187.59 35.2267C187.775 35.5617 187.867 35.9867 187.867 36.5017C187.867 37.0017 187.767 37.4492 187.567 37.8442C187.372 38.2392 187.095 38.5717 186.735 38.8417C186.38 39.1117 185.962 39.3167 185.482 39.4567C185.007 39.6017 184.487 39.6742 183.922 39.6742Z" fill="#EDFBFF"/>
<defs>
<linearGradient id="paint0_linear_551_24377" x1="-0.258675" y1="35.2652" x2="96.745" y2="32.7811" gradientUnits="userSpaceOnUse">
<stop stop-color="#00DCEA"/>
<stop offset="0.15" stop-color="#02C1DC"/>
<stop offset="0.48" stop-color="#087AB9"/>
<stop offset="0.96" stop-color="#120A81"/>
<stop offset="1" stop-color="#13007C"/>
</linearGradient>
<linearGradient id="paint1_linear_551_24377" x1="1409.01" y1="645.71" x2="4476.48" y2="566.355" gradientUnits="userSpaceOnUse">
<stop stop-color="#00DCEA"/>
<stop offset="0.15" stop-color="#02C1DC"/>
<stop offset="0.48" stop-color="#087AB9"/>
<stop offset="0.96" stop-color="#120A81"/>
<stop offset="1" stop-color="#13007C"/>
</linearGradient>
<linearGradient id="paint2_linear_551_24377" x1="25311.3" y1="27161.1" x2="82071.7" y2="25505.5" gradientUnits="userSpaceOnUse">
<stop stop-color="#00DCEA"/>
<stop offset="0.15" stop-color="#02C1DC"/>
<stop offset="0.48" stop-color="#087AB9"/>
<stop offset="0.96" stop-color="#120A81"/>
<stop offset="1" stop-color="#13007C"/>
</linearGradient>
<linearGradient id="paint3_linear_551_24377" x1="1676.34" y1="3119.12" x2="5217.36" y2="3028.55" gradientUnits="userSpaceOnUse">
<stop stop-color="#00DCEA"/>
<stop offset="0.15" stop-color="#02C1DC"/>
<stop offset="0.48" stop-color="#087AB9"/>
<stop offset="0.96" stop-color="#120A81"/>
<stop offset="1" stop-color="#13007C"/>
</linearGradient>
<linearGradient id="paint4_linear_551_24377" x1="674.197" y1="710.994" x2="2140.74" y2="673.411" gradientUnits="userSpaceOnUse">
<stop stop-color="#00DCEA"/>
<stop offset="0.15" stop-color="#02C1DC"/>
<stop offset="0.48" stop-color="#087AB9"/>
<stop offset="0.96" stop-color="#120A81"/>
<stop offset="1" stop-color="#13007C"/>
</linearGradient>
<linearGradient id="paint5_linear_551_24377" x1="663.11" y1="942.38" x2="2128.83" y2="904.871" gradientUnits="userSpaceOnUse">
<stop stop-color="#00DCEA"/>
<stop offset="0.15" stop-color="#02C1DC"/>
<stop offset="0.48" stop-color="#087AB9"/>
<stop offset="0.96" stop-color="#120A81"/>
<stop offset="1" stop-color="#13007C"/>
</linearGradient>
<linearGradient id="paint6_linear_551_24377" x1="11896.7" y1="9353.41" x2="38473.8" y2="8187.26" gradientUnits="userSpaceOnUse">
<stop stop-color="#00DCEA"/>
<stop offset="0.15" stop-color="#02C1DC"/>
<stop offset="0.48" stop-color="#087AB9"/>
<stop offset="0.96" stop-color="#120A81"/>
<stop offset="1" stop-color="#13007C"/>
</linearGradient>
<linearGradient id="paint7_linear_551_24377" x1="674.874" y1="998.709" x2="2126.81" y2="961.851" gradientUnits="userSpaceOnUse">
<stop stop-color="#00DCEA"/>
<stop offset="0.15" stop-color="#02C1DC"/>
<stop offset="0.48" stop-color="#087AB9"/>
<stop offset="0.96" stop-color="#120A81"/>
<stop offset="1" stop-color="#13007C"/>
</linearGradient>
<linearGradient id="paint8_linear_551_24377" x1="819.595" y1="1174.72" x2="2545.54" y2="1139.96" gradientUnits="userSpaceOnUse">
<stop stop-color="#00DCEA"/>
<stop offset="0.15" stop-color="#02C1DC"/>
<stop offset="0.48" stop-color="#087AB9"/>
<stop offset="0.96" stop-color="#120A81"/>
<stop offset="1" stop-color="#13007C"/>
</linearGradient>
<linearGradient id="paint9_linear_551_24377" x1="828.964" y1="1278.29" x2="2565.79" y2="1243.62" gradientUnits="userSpaceOnUse">
<stop stop-color="#00DCEA"/>
<stop offset="0.15" stop-color="#02C1DC"/>
<stop offset="0.48" stop-color="#087AB9"/>
<stop offset="0.96" stop-color="#120A81"/>
<stop offset="1" stop-color="#13007C"/>
</linearGradient>
<linearGradient id="paint10_linear_551_24377" x1="2991.81" y1="2758.34" x2="9597.84" y2="2537.86" gradientUnits="userSpaceOnUse">
<stop stop-color="#00DCEA"/>
<stop offset="0.15" stop-color="#02C1DC"/>
<stop offset="0.48" stop-color="#087AB9"/>
<stop offset="0.96" stop-color="#120A81"/>
<stop offset="1" stop-color="#13007C"/>
</linearGradient>
</defs>
</svg>
